
<global>
amp_veltrack=0
</global>

<group>
amp_veltrack=0
ampeg_decay=20
ampeg_release=0.35
ampeg_sustain=0
group_label=Group_0-45
lpc_hicc1=42
lpc_locc1=0

<region>
hikey=a#4
hivel=127
lokey=a4
lovel=1
lpc=wmTjQT0HlcKyCoRCugz1vp6bH8LjbNFB4442QJlJEMF1oOK+TVIDQSGRcsHEO4RBYhudvyRoK8HAWCJB+xQAwSgtW0Dr1AFBHE9pwQ4izUBfhRBBYB5owcjyEkF1nxrA
lpc_rms=-24.67
offset=683
pitch_keycenter=a#4
sample=Oboe_invertedmordent_wholetone_PP_A#4.opus
tune=+5
</region>

<region>
hikey=a#5
hivel=127
lokey=a5
lovel=1
lpc=RcxZQtm258KUkqJCbO1LQYOEHcLESS5BDUkeQSoICT5ZWhvApIa3QD5NQsEvSzxB/KX9QP/SZsHEPR5BF/SiwH0oMkHejxA+r/1DwRuP9ECqRflASy1TQIQXisGxcDRB
lpc_rms=-21.98
offset=618
pitch_keycenter=a#5
sample=Oboe_invertedmordent_wholetone_PP_A#5.opus
tune=-11
</region>

<region>
hivel=127
key=c4
lovel=1
lpc=MbInQrByBcNYxChDGg/HwhubrkEUFLDAxs1dQf44vb6oMFfB2GIaQelpIcFJRwdBuHukQB2DncAuISfBV2dLQWRTtr/2kii+bPGowLTToL2ProlAMVKSQNJQEMFHvmNA
lpc_rms=-23.61
offset=3691
sample=Oboe_invertedmordent_wholetone_PP_C4.opus
tune=-1
</region>

<region>
hikey=c5
hivel=127
lokey=b4
lovel=1
lpc=dG7TQeZyg8JVnFBCHiCLQAmP9MHfN11B5uETQbsRFsErvmu+xq5RQGB49cBEnyJB75mlv5IDLcFSg3RBED3GwLB7xsDCEkJBKTgvwZyHS0A1PEtAN4dAwAGyFECBNLu/
lpc_rms=-26.45
offset=740
pitch_keycenter=c5
sample=Oboe_invertedmordent_wholetone_PP_C5.opus
tune=+3
</region>

<region>
hikey=c6
hivel=127
lokey=b5
lovel=1
lpc=r+7/QYKOd8IRHStCMaWlQBLR1cHxIXBBR+FDQXdHjsEiZKZAUW1TQU2vRcGQlNE/Ez0zQSVbCcFfHpBA15CvvycJn0D/fYA/hngNwRJ8b0Hw2D/A3j0+wRvG2kDHnlxA
lpc_rms=-25.37
offset=1848
pitch_keycenter=c6
sample=Oboe_invertedmordent_wholetone_PP_C6.opus
tune=-22
</region>

<region>
hikey=d4
hivel=127
lokey=c#4
lovel=1
lpc=5pMCQl51ucIMF8RCwf4swhHteD8e7FBBdOwTwe3m+sCXBqRBrftgwdSvNsCRFu9AFFUWP3+9vcC2wNlAQVrHPqu0U8FxaF1BC3ZZv0jiK8E4ZT1B4PyDwKUb3r+gT6w/
lpc_rms=-24.33
offset=654
pitch_keycenter=d4
sample=Oboe_invertedmordent_wholetone_PP_D4.opus
tune=-1
</region>

<region>
hikey=d5
hivel=127
lokey=c#5
lovel=1
lpc=tX/CQXs7jsLw6apCrsBKwrvXT0E0vWw/v36uv7pf/77OqPM/Rr+WPwaIp8DrJIlAVDE+v8e9dj4uf4I/4bM/wFt7AD8dRh1Ah+UxQK18HsG9srpAR1DBQJ2bFsFWJIJA
lpc_rms=-24.98
offset=2421
pitch_keycenter=d5
sample=Oboe_invertedmordent_wholetone_PP_D5.opus
tune=-12
</region>

<region>
hikey=d6
hivel=127
lokey=c#6
lovel=1
lpc=pYfbQcQheMKGG3lCkcrXwf+PAUBhGcFA//AswPuCsEBa9L3AdvcRQB6R30C4lrzAfh2yQHxIE8DLV5c/cM2oP5by0z+PKdM+yv2Lvw9NDUCSHTPBUMGnQY4ScMFsJ41A
lpc_rms=-23.94
offset=2663
pitch_keycenter=d6
sample=Oboe_invertedmordent_wholetone_PP_D6.opus
tune=-24
</region>

<region>
hikey=e4
hivel=127
lokey=d#4
lovel=1
lpc=1j1FQmlOFcN5DTBDrgm8wqfKNkEPLbFB+ivQwQ9uf0H5xE7AzjZ2P0e7d8C4XgXBWJ+eQVd+s8DQtMnAxGucv1KeyECOF9jA0A/5QLx18L9OAjDB37qwQVR2l8Et1MhA
lpc_rms=-20.50
offset=2176
pitch_keycenter=e4
sample=Oboe_invertedmordent_wholetone_PP_E4.opus
tune=-9
</region>

<region>
hikey=F5
hivel=127
lokey=d#5
lovel=1
lpc=bUTAQnZziMNzw55DmfokwyA0kT/YFnBCsWtEwnsD/UGnk3PBCKoWwIj++kBaETbBzEDhQXxZo8F71dK/3/OpQGIQ1D+7ZZfABhg9QRLrgcHCKIRAoCsUQsLqa8L/6vRB
lpc_rms=-15.50
offset=645
pitch_keycenter=e5
sample=Oboe_invertedmordent_wholetone_PP_E5.opus
tune=-11
</region>

<region>
hikey=A6
hivel=127
lokey=d#6
lovel=1
lpc=M4GfQi3uGcOXZxND0o2Ewif5ir3bdfhBgsA6wUckW0G6PMfAliwYQV7DbUEX6iPBIxLnQFzer0FVfrnB8I3jQRUp48BrgMBA87YtwDQEBMJ576VCmviRwonJJkJ2x9XA
lpc_rms=-20.90
offset=265
pitch_keycenter=E6
sample=Oboe_invertedmordent_wholetone_PP_E6.opus
tune=+57
</region>

<region>
hikey=f#4
hivel=127
lokey=f4
lovel=1
lpc=O+zLQT5ajsJugJJC9u3Uwd4BC8FizFxBsdunwIC5Xr/2HyNAJ9GmwJkQ20DsgvPAfwHLQEQIcD5iZ4LA/g5RQPxT+b/AgAtAX+yYwBTLh0DYKOy/NAF0QLWmnMBCYf4/
lpc_rms=-27.33
offset=665
pitch_keycenter=f#4
sample=Oboe_invertedmordent_wholetone_PP_F#4.opus
tune=+4
</region>

<region>
hikey=g#4
hivel=127
lokey=g4
lovel=1
lpc=30nrQSAsosIJVZ5C/+BhwT+U9MG2nd5B9zEkwbLiO79W1KxAtjXYvz6JMcEosZJBTBlPweuV6kAy9Jw/xiVDwR3HPUEgp63Ac0uPQCMeYcDjDZc+ZDqzv7zJfUBBaRDA
lpc_rms=-23.09
offset=601
pitch_keycenter=g#4
sample=Oboe_invertedmordent_wholetone_PP_G#4.opus
</region>

<region>
hikey=g#5
hivel=127
lokey=F#5
lovel=1
lpc=hrg5QrcCqcKTjCZCcXTnQZ50H8KOsYRBnk//QOaPAsGR5LRApfO0wIIMLcCZV3ZB9ebewBlunj/7ab8/HFK3v4i7/0AgpUfB7FMbQWjryD9mwai/Ha0cQZRAYMFR8wRB
lpc_rms=-25.40
offset=538
pitch_keycenter=g#5
sample=Oboe_invertedmordent_wholetone_PP_G#5.opus
tune=-10
</region>
</group>

<group>
amp_veltrack=0
ampeg_decay=20
ampeg_release=0.35
ampeg_sustain=0
group_label=Group_46-90
lpc_hicc1=84
lpc_locc1=43

<region>
hikey=a#4
hivel=127
lokey=a4
lovel=1
lpc=AUsCQk+ir8Ln7qNCuK9DwXHe28F+15BBlQ0gwLR7o8BkhehAD8G2QG1Pr8E/SoxBcCYdvi3AW8DnOeZA/OWVwRkdD0EG1oJB9+2AwYgwB8BcK9dAos+nv/iUjj/kt5K/
lpc_rms=-22.06
offset=633
pitch_keycenter=a#4
sample=Oboe_invertedmordent_wholetone_MF_A#4.opus
tune=+22
</region>

<region>
hikey=a#5
hivel=127
lokey=a5
lovel=1
lpc=PWArQn01wsL5/KhCsPInwbfv/8GGYqpB4rKkQEWL4cBAaRRA+OhTQEF8r8B72KBAbq4XQTd6i8Ero4lBnpQswVD0lkA/2A5Bn5sywaRpmkCcohzAOlaHQcEgocFs8wpB
lpc_rms=-21.31
offset=617
pitch_keycenter=a#5
sample=Oboe_invertedmordent_wholetone_MF_A#5.opus
tune=+3
</region>

<region>
hivel=127
key=c4
lovel=1
lpc=ytVNQt2xK8OHV2pDasUVwyeMrUF7EKtBHGkfQUxxBsLegvZBACKqwQKEkkAAaiNB0Q4mwVrmJEGXTorBmUV4Qeg+O8CNL1TAcBJUQCqyPcCWDmfAU1lMQdiKPMEDIItA
lpc_rms=-16.81
offset=745
sample=Oboe_invertedmordent_wholetone_MF_C4.opus
tune=+4
</region>

<region>
hikey=c5
hivel=127
lokey=b4
lovel=1
lpc=XPqLQbrpM8LFqi1CHXM4wRx2OcGRQQtBz65zQGiGMMABwjLAdqIrPzMwnD89+FY/ciHjvg4BgsCymBtBIuUEwV0WR0CLWSy/3x+Cv6ktK0D7zEq/WcguwODVekDAut6/
lpc_rms=-25.16
offset=483
pitch_keycenter=c5
sample=Oboe_invertedmordent_wholetone_MF_C5.opus
tune=+25
</region>

<region>
hikey=c6
hivel=127
lokey=b5
lovel=1
lpc=yFjvQRrUVMJCaxxCB8T0wJVvTcHyao9BQCCWwFyAn8DYBCFB1fyXv/tT7MCxWG5BE+z+wHm8HMCzDm1BF29RwUnaqkDguRhBZoFPwV6vFEF1zJBAKg0WwWgoqsBgxy9B
lpc_rms=-26.78
offset=319
pitch_keycenter=c6
sample=Oboe_invertedmordent_wholetone_MF_C6.opus
tune=-21
</region>

<region>
hikey=d4
hivel=127
lokey=c#4
lovel=1
lpc=+i/WQaKPoMKJd79CrCdiwuTZhEEsFkZACvsQwWaSKT+3DiFBZ5DfwP/ys7+Za6k+e3ahQEVr18BpoQpBszXUwA1W5b9uGrNAGp8xwFtBMD8D3fG/fzxnQL67C8DrN2A+
lpc_rms=-23.37
offset=988
pitch_keycenter=d4
sample=Oboe_invertedmordent_wholetone_MF_D4.opus
tune=+10
</region>

<region>
hikey=d5
hivel=127
lokey=c#5
lovel=1
lpc=Ctm0QcRQhMKbI6NCdjdWwh3Cn0Hqw5LAKo6WP51aRkDry9LAhBSkQJ5Ol8Bt7utAXmXMwAF1akBUGY+/taMZwBozh0AqfUjAYudRQMkydMAthIU/jM2xQMG3AsEo1X9A
lpc_rms=-24.30
offset=2344
pitch_keycenter=d5
sample=Oboe_invertedmordent_wholetone_MF_D5.opus
tune=+3
</region>

<region>
hikey=d6
hivel=127
lokey=c#6
lovel=1
lpc=wYQaQlDUm8KzV4hCSS3ZwfT4s0DPev5ArAMSwZY/P0HzlDDBtZ03QY0KmsAlDu0/9FidQPyaP8D35ixAgfPYP1dqcMA8IABBkwTuOh738sDHkzHBIHH/QXN9osHLADpA
lpc_rms=-21.57
offset=485
pitch_keycenter=d6
sample=Oboe_invertedmordent_wholetone_MF_D6.opus
tune=-20
</region>

<region>
hikey=e4
hivel=127
lokey=d#4
lovel=1
lpc=fNQVQjJv38LPv/lCxt9ewpe1X76WGwZB1N5jwLYgjEDC2h3AkUsXvomV4cBKX9NAQ0KkQMjTar9u197A9a5ywMX4VEGwXHrAG1gqwab4H0Ew3Mm/gFJuQIVt5cAdPD1A
lpc_rms=-21.99
offset=1617
pitch_keycenter=e4
sample=Oboe_invertedmordent_wholetone_MF_E4.opus
tune=+13
</region>

<region>
hikey=e5
hivel=127
lokey=d#5
lovel=1
lpc=6NfYQqDUl8NAsqxDqT0ywxLVu0FGl2NBVYEKwDWJOkHVgLnBMu21QQ14BcJa7dpBgG/DQTIeJML9wu5Ahf1DQYKlmsBQh98/HZs6wTwZt0F9ie7BicV4Qjb8nMLuhhtC
lpc_rms=-13.39
offset=1077
pitch_keycenter=e5
sample=Oboe_invertedmordent_wholetone_MF_E5.opus
tune=+3
</region>

<region>
hikey=A6
hivel=127
lokey=d#6
lovel=1
lpc=mfSjQpHYIcMsSiBDjWagwrNHMUHaybRB3f60wDPPJ0GSFq3A2MIJQbIIgUEtATfBwxLqQMFsq0GTvaDBVdGlQRcJiEDLUgPBFwaNQd7ca8IN6NBCGgSpwpIHN0JzVevA
lpc_rms=-17.93
offset=345
pitch_keycenter=E6
sample=Oboe_invertedmordent_wholetone_MF_E6.opus
tune=+69
</region>

<region>
hikey=f#4
hivel=127
lokey=f4
lovel=1
lpc=+i/qQbAQrcLC7c1CnwZvwp0cTUFemABB0XYvwSIyIkGNSzDAmzsAwdmdvEClm4g/+aqav5qAEkCpORzA53Qyv9qmg0AXCqfAx+qDvRIxZEB45cc/XXO1wDO1bkCy4Hi/
lpc_rms=-22.21
offset=1200
pitch_keycenter=f#4
sample=Oboe_invertedmordent_wholetone_MF_F#4.opus
tune=+19
</region>

<region>
hikey=f#5
hivel=127
lokey=f5
lovel=1
lpc=Jr0rQrwKAcPnAyRDDp28wvG9yL/AWyhCDGPRwZyEzj+8mXtB9VUAwubyEkI9IorBUBKDQLyNBcH7iSRBvpNgP7mAdsEdi79BV+99wX/vHkDdKPpAWrxrwbWWVUEMqVrA
lpc_rms=-19.89
offset=616
pitch_keycenter=f#5
sample=Oboe_invertedmordent_wholetone_MF_F#5.opus
</region>

<region>
hikey=g#4
hivel=127
lokey=g4
lovel=1
lpc=ou3pQefmpsJI/LRCDnbswQekxcE9p/ZByXcfwVSjS8BsbaI/xSiAQGPGksCI73A/P7cYQLRgkUAgmBbBGZ6WvxU+aEEF+WjBTIx6QGylgUB9vZ+/NZRqwKwZSEDl2k+/
lpc_rms=-21.26
offset=719
pitch_keycenter=g#4
sample=Oboe_invertedmordent_wholetone_MF_G#4.opus
tune=+12
</region>

<region>
hikey=g#5
hivel=127
lokey=g5
lovel=1
lpc=98pAQlF01sJf38NCr++wwQMKAMJDRBFCrPDUwGqLrMCUuypBBrWswYxR0EF6cAvBmBS6wJsbk0Hqy0TBXwHEP6ALAEHGXjrBpJg5QYXHaD/mXf7Ac/SoQTQwt8FP9UlB
lpc_rms=-18.41
offset=987
pitch_keycenter=g#5
sample=Oboe_invertedmordent_wholetone_MF_G#5.opus
tune=+8
</region>
</group>

<group>
amp_veltrack=0
ampeg_decay=20
ampeg_release=0.35
ampeg_sustain=0
group_label=Group_91-127
lpc_hicc1=127
lpc_locc1=85

<region>
hikey=a#4
hivel=127
lokey=a4
lovel=1
lpc=YzMKQtYTwMIhWNNCtQk6wnIyKcE7Et9BPgCgwXD9LEGuG1+/uEk+wPGXBsEJwY5BrJ/LwC/bBcERKIJB1veNwVDmX0HwBM3AWxDHwNlNf0HseBvBi9FLwFk1CUFDqIDA
lpc_rms=-20.21
offset=522
pitch_keycenter=a#4
sample=Oboe_invertedmordent_wholetone_FF_A#4.opus
tune=-8
</region>

<region>
hikey=a#5
hivel=127
lokey=a5
lovel=1
lpc=S5giQserw8LnVsJCsaUHwlV3mMG5bf9BV0ppwSJr/z6V9jVAQXmnQICFg8FK96lBZCgOwdwDjcDt84ZBag64wXNHukExAErBelGVQKYcacALoJE/uTBuQRxbnsEtkPRA
lpc_rms=-18.38
offset=311
pitch_keycenter=a#5
sample=Oboe_invertedmordent_wholetone_FF_A#5.opus
tune=-27
</region>

<region>
hivel=127
key=c4
lovel=1
lpc=5tJTQh73MsN8pINDT+1aw2rB5kJWJDrCtL2yQe2fgsBY8EvB5XKmQbjoA8J/ShpCMnvOwVzwjUEQz5PBgHknQf4lFj/yWidAAZtawVyYoUGZV7TBhiSsQSlNYMHIup1A
lpc_rms=-15.55
offset=1514
sample=Oboe_invertedmordent_wholetone_FF_C4.opus
tune=-11
</region>

<region>
hikey=c5
hivel=127
lokey=b4
lovel=1
lpc=4nqpQbGmXcKznmxCl1Powapcoj8P4SdB/0MowR8HHUEZxifBSaoVQcaJZcBYER+/LnIiQFqja8DNR/U/JZ3qPurzGEDV+ljAI/UbvxZMV0CX3eA/JKYdwSiJJkHba3zA
lpc_rms=-24.02
offset=282
pitch_keycenter=c5
sample=Oboe_invertedmordent_wholetone_FF_C5.opus
tune=-7
</region>

<region>
hikey=c6
hivel=127
lokey=b5
lovel=1
lpc=VXm4QUZXPMK7NypC61ZvwRqktMDSMkZBtfR9wD0phD87yFLAorkpQQb5y8CTTiPAhsw/QT9R8sB3cuW9GLDaQCbQvb+dkam/Bf4ZvzPeKkFPCBLBYXdswHfz5ECnFvg9
lpc_rms=-21.82
offset=314
pitch_keycenter=c6
sample=Oboe_invertedmordent_wholetone_FF_C6.opus
tune=-53
</region>

<region>
hikey=d4
hivel=127
lokey=c#4
lovel=1
lpc=H4P4QRQivcKIK+VCryx9whTEA0Eq8sNABpnkv6IrDUBYLwI/CR/Wv0oL7cD8cQJBuYboQCt+ecH+rK5Alo2TQJvIvMBK3SNB61mbwUqHr0Hfb2rBaIMKQUcNysAt0x1A
lpc_rms=-18.60
offset=1644
pitch_keycenter=d4
sample=Oboe_invertedmordent_wholetone_FF_D4.opus
tune=-8
</region>

<region>
hikey=d5
hivel=127
lokey=c#5
lovel=1
lpc=nzWXQapHacImSZ9CJmB5wrys40HDCtO/TkgIwdYq8EBPq7/AMycGQRIuIME5uGxA5+i8QDluucBLzVk/wxxQP4A0+L+GKyZAQOg3PzVei8DjA+g/YW/EQFlPB8Fc+mZA
lpc_rms=-21.55
offset=886
pitch_keycenter=d5
sample=Oboe_invertedmordent_wholetone_FF_D5.opus
tune=-18
</region>

<region>
hikey=d6
hivel=127
lokey=c#6
lovel=1
lpc=4Aq/QTTUV8KtcWtC+n0OwlAZQ0GHY71Ao8EvwRuyOUHm0qjA2IOPPuOqokB6mR3AidEeQFScZj+ZGrU/XyZcwNf9uUBzNhy9muoKwJoIW78oL96/RRpIQcavSsEHvqlA
lpc_rms=-20.45
offset=724
pitch_keycenter=d6
sample=Oboe_invertedmordent_wholetone_FF_D6.opus
tune=-49
</region>

<region>
hikey=e4
hivel=127
lokey=d#4
lovel=1
lpc=4QoDQnrsz8IzFgpDcT23whJplEEtiqJBaGG9wd+VtUENWoXBaZfiP6SDiUA18OTA2QuCQVVimMHWTUBBBKzcwM4J2kAIxXu/pCoqwb6xd0Ee+2TByx5UQcN9FcHlp0NA
lpc_rms=-18.50
offset=1232
pitch_keycenter=e4
sample=Oboe_invertedmordent_wholetone_FF_E4.opus
tune=-9
</region>

<region>
hikey=e5
hivel=127
lokey=d#5
lovel=1
lpc=YBuJQkdwSMO2hYBDmoUxw4G9ckJ2MQtBWSDgwZ4TMUIRqFPCAwHwQfc6QcDBbp7Aylh4QWAwpMEl1a9BeEi9wS6fbEE4DJS//uBJPwYuDMAJpz7Bmxs6QuXqZcIXhNhB
lpc_rms=-13.58
offset=1079
pitch_keycenter=e5
sample=Oboe_invertedmordent_wholetone_FF_E5.opus
tune=-21
</region>

<region>
hikey=A6
hivel=127
lokey=d#6
lovel=1
lpc=7mmYQnQ8EMNkfwVDYMNXwj6hXcAEP/NBENc3wUO6PkGKqHDAoTIVQaulcEH9/DzBkANBQUvVj0FIxb/BOwIXQkC4v8EM7N9Bq00ewl2g0EFn6b1BdWT9wfjCmUFWrTc+
lpc_rms=-11.23
offset=337
pitch_keycenter=E6
sample=Oboe_invertedmordent_wholetone_FF_E6.opus
tune=+34
</region>

<region>
hikey=f#4
hivel=127
lokey=f4
lovel=1
lpc=Wqe9QSsYkMKe2bpCoEOAwk3/nUHp35FA5JWZwGqzsz57Nro8FvAcQLVZj8AudrK/UPz5QFpEf8AC0wDAxnqcP9bjXEDX2sS/ZVPpwLjWK0GYz6nA+hLCvwCZcUAaQMi/
lpc_rms=-21.63
offset=1523
pitch_keycenter=f#4
sample=Oboe_invertedmordent_wholetone_FF_F#4.opus
tune=-2
</region>

<region>
hikey=f#5
hivel=127
lokey=f5
lovel=1
lpc=+0oKQjic08JThRND+sjjwhZHTEKlK1/B3rMNQVYwk8B+86/AqcAGQatyPECugFDBeWaRQSDhhsEBfjBBulbIv3NvosAwuBRB+R0lwdt3U0Hm8GfB6M8wQQdkoMD0cxNA
lpc_rms=-15.91
offset=981
pitch_keycenter=f#5
sample=Oboe_invertedmordent_wholetone_FF_F#5.opus
tune=-20
</region>

<region>
hikey=g#4
hivel=127
lokey=g4
lovel=1
lpc=ZTmfQarGb8K/VJVCgvAhwvEga8Dl1aVB65wwwS3sAMCyrLBA4ADSv4Boi8Chg/JA5xSRwOn2OkBpgofAfzI4QGWBcT8RcFHAGkStQDxC/sCx1fZA4EYiwL0r57+9/ro/
lpc_rms=-23.05
offset=700
pitch_keycenter=g#4
sample=Oboe_invertedmordent_wholetone_FF_G#4.opus
tune=-17
</region>

<region>
hikey=g#5
hivel=127
lokey=g5
lovel=1
lpc=TgwwQlcaycJufNdCCHJgwrV5kUDJDZZBlioGwJbYJMF5SgBBSMu1v1S+mUC7uhW/Uy8RwSI30EGDpbzBMbttQabrAcHM27ZAYD/BQOQqfcGMT71BKmQvwW+ElL+zIaVA
lpc_rms=-15.88
offset=792
pitch_keycenter=g#5
sample=Oboe_invertedmordent_wholetone_FF_G#5.opus
tune=-19
</region>
</group>

<group>
amp_veltrack=0
ampeg_attack=2
ampeg_release=0.35
group_label=PP
lpc_hicc1=42
lpc_locc1=0
volume=-3

<region>
hivel=127
key=A#4
loop_end=254606
loop_mode=loop_continuous
loop_start=56499
loop_xfade=24005
lovel=1
lpc=g4JHQq9rDcMVSh1DSqOJwpsLocExQBVCTYspP4+Rr8GB6PpAnMiBQEgFjb/xo2HAVwQXQS6rQsEEvypBS0v1wGyQ7UA2C9y/MYyUwXglBkJCfrjByjiBPwRGNUHoedXA
lpc_rms=-22.03
sample=Oboe_sustain_PP_A#4.opus
</region>

<region>
hivel=127
key=A#5
loop_end=252424
loop_mode=loop_continuous
loop_start=56015
loop_xfade=23799
lovel=1
lpc=/msjQtYRisI8g3VCFVtnwXWam8HEBe5BqqcAwUX+KcEClKhB1PWlwHElFMEBHZdBuajnwNLZUsDIHpBBmLCUwX/GZEE3z/ZAGLSmwetmxkE6AYjAz8t5wXQi9kGmxozB
lpc_rms=-26.30
sample=Oboe_sustain_PP_A#5.opus
</region>

<region>
hivel=127
key=A4
loop_end=246638
loop_mode=loop_continuous
loop_start=54731
loop_xfade=23253
lovel=1
lpc=Xpt0QhJfM8OjnkVDGNeTwjEJVsLoVrNC2DBXwgC9f0FdD7K/czlawDQGBEGJHo3BUBGIQe+Hmb+SoenAhAcZQLFYHEAODH9Atfh8waWxWEHJORG9QQwKwT9vKkFvJanA
lpc_rms=-18.71
sample=Oboe_sustain_PP_A4.opus
tune=+2
</region>

<region>
hivel=127
key=A5
loop_end=253010
loop_mode=loop_continuous
loop_start=56145
loop_xfade=23854
lovel=1
lpc=kEwRQlXYnsIsco9CjVEgwSNPHsLPqzJC5DRQwaBEMMEtVn9BJknHwN9nhr3WRcxAt5bVwCaYm0CbRi5AJ4fpwFqIRUEqPcDAogqowM5hakGYjPnAndf1v4x1CEGoH3vA
lpc_rms=-26.63
offset=16302
sample=Oboe_sustain_PP_A5.opus
tune=+1
</region>

<region>
hivel=127
key=B4
loop_end=259972
loop_mode=loop_continuous
loop_start=57690
loop_xfade=24511
lovel=1
lpc=ervpQbG+q8Lmtr1Cg4cNwmZE0cEPkTNCZdXYwZfliED/EX1AUiCmwLvZC0HnD5nAneT5wPXZA0FlfCFAiA2owCXRR0A0wWzA9sKVQHGqYcBtNdm/29gEQZTAA8HP6zZA
lpc_rms=-26.25
sample=Oboe_sustain_PP_B4.opus
tune=-1
</region>

<region>
hivel=127
key=B5
loop_end=249964
loop_mode=loop_continuous
loop_start=55469
loop_xfade=23567
lovel=1
lpc=FTBlQtVJuMJ13oFCbol8QDUNJsJ99hxC5lMcwb5tO8DE5CtBvymCwawHv0E3kvzASsQuwVm9xEGCtR7BHK4owbADtkHY1+PAHwESwLrC/kD8nTLBOlvkQXz+6cHCmZhA
lpc_rms=-25.38
sample=Oboe_sustain_PP_B5.opus
tune=+1
</region>

<region>
hivel=127
key=C#4
loop_end=250571
loop_mode=loop_continuous
loop_start=55604
loop_xfade=23624
lovel=1
lpc=C/4dQuWT8cK3OxNDsD6qwo9vV0EZfYtBw+2XwWphl0FGDI3BDa09QSb4WsEUZiRBUSm+QPrecMHrUIJBxpVdwfRWm0DXkvZAoTgpwSnYwr8QRydBudKzwLUXwj7IrLw9
lpc_rms=-24.78
sample=Oboe_sustain_PP_C#4.opus
</region>

<region>
hivel=127
key=C#5
loop_end=248808
loop_mode=loop_continuous
loop_start=55213
loop_xfade=23458
lovel=1
lpc=kCXrQYoHq8Ivvr5CaUQgwpgsX8HXFblBH76dP6nVasFZM/s+4iNCQWCkw8ANmKHAN6mOQKqNBkHwzjXBVFaXv2KFCkFlj9i/mFffwBAvI0ADRiRBjNknwXDp/D4luAhA
lpc_rms=-24.97
sample=Oboe_sustain_PP_C#5.opus
tune=-2
</region>

<region>
hivel=127
key=C#6
loop_end=262257
loop_mode=loop_continuous
loop_start=58197
loop_xfade=24726
lovel=1
lpc=hHeWQvvN1MIVQppCfDCewfFnG77An7ZB8eKGwV/E9EE4LYzBW8KlQTiExz91FiPAVWmMQYJsNUDBq+zA51DoQRt9pcGT8uhBxu9QwTuBbEHJsFtBRS9Pwg50H0KU1/i+
lpc_rms=-22.13
sample=Oboe_sustain_PP_C#6.opus
tune=+1
</region>

<region>
hivel=127
key=C4
loop_end=249404
loop_mode=loop_continuous
loop_start=55345
loop_xfade=23514
lovel=1
lpc=Z7F4QuKDQ8N1H3NDjQESww4OBUIMuqZBFyzjwel9iUHkUP/AQwuvQCpCg8BaWDrBlperQUusYL1/AlvBGV0tv5WsKkGdLtq/05QhwWkRx0Dg60tBOqzLwY0LmUGypqvA
lpc_rms=-22.35
sample=Oboe_sustain_PP_C4.opus
</region>

<region>
hivel=127
key=C5
loop_end=243661
loop_mode=loop_continuous
loop_start=54071
loop_xfade=22973
lovel=1
lpc=wkCrQaPSa8J7FXRCoxaAwSGxrMF9cppBkVi/QEAXkMFpOdZAjhUBQSRi5MA2tzbAihjuQMWkc7/cFe7A/lK3QE0JzUDLXzjBLQPcPwt8E0FxMYzADrUywWfUekEZm8jA
lpc_rms=-29.11
sample=Oboe_sustain_PP_C5.opus
</region>

<region>
hivel=127
key=C6
loop_end=250823
loop_mode=loop_continuous
loop_start=55660
loop_xfade=23648
lovel=1
lpc=HKY2QgkTgcKkYUtC7JF0wanWxz+21i9BtsWywK5JbUHnXjvBsYuEQaRokMD3W5dA7MiRQFELF76cZh9Bkzz9wFSqgUEjlfjAyoAWQT8z/L6SCGdAlfVkQUlFAsI2a5hB
lpc_rms=-26.05
sample=Oboe_sustain_PP_C6.opus
tune=+3
</region>

<region>
hivel=127
key=D#4
loop_end=263801
loop_mode=loop_continuous
loop_start=58540
loop_xfade=24872
lovel=1
lpc=z5g/QgLwCcPiDBJDx1Q5wg0eQMJMGo9Cf7QMwqeQqMAeT0hBhXA7wB1IgkBlvorB/027QY9xf8GKUE1BwGFfwUpMukAhAkNBr2q+wRrOlkFLicjAHYuOv9viDEAu/B6/
lpc_rms=-23.56
sample=Oboe_sustain_PP_D#4.opus
</region>

<region>
hivel=127
key=D#5
loop_end=244112
loop_mode=loop_continuous
loop_start=54171
loop_xfade=23015
lovel=1
lpc=v1GAQsV2LMODC0BDORm8wkDVs8EbnoZCKYMCwhg7xb+U+2RAZ4cXwPtKbUHUP6bB/skcQbpRLkCDBb6/qhYmwFcLF8EkagJCQ8DWwe7yKUCCUClBb1M4wICvacEvHFtB
lpc_rms=-22.14
sample=Oboe_sustain_PP_D#5.opus
</region>

<region>
hivel=127
key=D#6
loop_end=250041
loop_mode=loop_continuous
loop_start=55486
loop_xfade=23574
lovel=1
lpc=AkH4QhsEMsPgd7tCWEQ9QqZilsKBpkFCvN62QBkNvMDDe9FBp07oQHzZ4T/ND4RByeF1Qbng/D5FRpBBUTqjP1NOvkF6levAmAAAQrwpvMIyw7ZChAnaQVGelsKNMFVC
lpc_rms=-16.94
sample=Oboe_sustain_PP_D#6.opus
</region>

<region>
hivel=127
key=D4
loop_end=262007
loop_mode=loop_continuous
loop_start=58142
loop_xfade=24702
lovel=1
lpc=jqMHQrwRxcK3seNCcwaGwujRXEE/E5FBgKKWweKTA0EonPnAY1UuQe0WasFj8CZBwomTQLH2NcFRVABBml5ewBA9jMDpxRFBQ9qHwI6jVcCSTGBAYty9QMV9KcHpW5RA
lpc_rms=-25.12
sample=Oboe_sustain_PP_D4.opus
</region>

<region>
hivel=127
key=D5
loop_end=250587
loop_mode=loop_continuous
loop_start=55608
loop_xfade=23626
lovel=1
lpc=GdQNQpOh4cLh8xhDi0bbwhgmBkIfvWJBL5wlwec1oMGMdPBBDazSwOMipMEGe71BEUgGwQp+hj5V0sfAaLVyQQ10UsGDJz8/qwzvQN9WhcBtDO7A6X+nQdoYp8HH3QJB
lpc_rms=-24.64
sample=Oboe_sustain_PP_D5.opus
tune=-2
</region>

<region>
hivel=127
key=D6
loop_end=259971
loop_mode=loop_continuous
loop_start=57690
loop_xfade=24510
lovel=1
lpc=4DmAQsyMn8ILr/xBLdG9QUHGkcECgb5BUsElwQB4DEGVMilAKe6bP5RJzEB1jd2+GV8bQFLRGUE3mEnANHCZQEQ6gEBYJKE/73y5QOTAn0B5TSbCSs3BQWpJykGNeNzB
lpc_rms=-25.98
sample=Oboe_sustain_PP_D6.opus
</region>

<region>
hivel=127
key=E4
loop_end=253424
loop_mode=loop_continuous
loop_start=56237
loop_xfade=23893
lovel=1
lpc=GkdRQhVwHcP4ZjBDmJmSwp3kxMFdvUZChqCxwfSXZ8BwaA5B6jd9wX2fZEF5cQrB6KNbQQRHwMBVqvvAPc8IQL8xKUH+DtjAmjUmwbwMa0E769A+e4oLwR3IQEBBs00/
lpc_rms=-22.95
sample=Oboe_sustain_PP_E4.opus
tune=-1
</region>

<region>
hivel=127
key=E5
loop_end=254547
loop_mode=loop_continuous
loop_start=56486
loop_xfade=23999
lovel=1
lpc=T2nHQsx9fMOx1odD8WcLw5drCcDot3tCi0gMwsxRUMGCLRRCuHbJwaVAKkExfRvAJRLDwEa0OEEnhgfBPh4MQbNUlL+ywB/Ae6mEQBB9O0CMa2fBwX7cQT+LCsKRobhB
lpc_rms=-19.20
sample=Oboe_sustain_PP_E5.opus
tune=-1
</region>

<region>
hikey=A6
hivel=127
lokey=E6
loop_end=267650
loop_mode=loop_continuous
loop_start=59394
loop_xfade=25234
lovel=1
lpc=hNipQnTd+MKksJ5C/d1gQBWojsEqTVRAWAGGQX5kn0DgFDHAIviYQdD/I0BamipAJRpOQQBYj0BAxDVAWmVzQcJi+z+wszBAn0BJwuT6kkIE0jnBB+sBwh4mF0LXxZ/A
lpc_rms=-18.03
pitch_keycenter=E6
sample=Oboe_sustain_PP_E6.opus
tune=+1
</region>

<region>
hivel=127
key=F#4
loop_end=256285
loop_mode=loop_continuous
loop_start=56872
loop_xfade=24163
lovel=1
lpc=oK/KQfaOmcJFW7dCIMUrwlMyisFDOBtC3Di2welnlUDS9qA/G/SHwDnQ+0CmfGjBr3GWQThuO8HScx9Ao/1nP1av777q9gpA7ngYwY9YPEF4zDjA4wSpwG3Up0B+sdO/
lpc_rms=-26.61
sample=Oboe_sustain_PP_F#4.opus
tune=-1
</region>

<region>
hivel=127
key=F#5
loop_end=255342
loop_mode=loop_continuous
loop_start=56663
loop_xfade=24074
lovel=1
lpc=odADQsm1nsKX3JxCtDqewc5dysE40pNBk4svQRhJXMHplQc/vqG5QBBMi7+Y21E9OxBDQK6FJsF1Bp1B+hdbwc6IUsDiQWZBugUzPVgEl8EnMY5BDptuQJXfgMGD3DNB
lpc_rms=-26.21
sample=Oboe_sustain_PP_F#5.opus
tune=-1
</region>

<region>
hivel=127
key=F4
loop_end=257959
loop_mode=loop_continuous
loop_start=57244
loop_xfade=24321
lovel=1
lpc=eTVhQoM7JsMt7TtDz+KxwpaF/8AcnwlCDVEWwZUWNcF4h2ZBBV0qwYIW2r9LAuVAYo8GwVSFX0ElEwTBgZ/jwIYJhEHhN97A7v1swPTDVr6lTDRAzMdgv2iB6D8+GXy/
lpc_rms=-22.05
sample=Oboe_sustain_PP_F4.opus
tune=-1
</region>

<region>
hivel=127
key=F5
loop_end=252081
loop_mode=loop_continuous
loop_start=55939
loop_xfade=23767
lovel=1
lpc=ZA0MQ/5ql8P9C3pDKZbGwQLK5cKGXIhCPYooQvA0MMKaRPk/M4oyPnaoIELK0zbCqQXBQE52DkKLG8vBYkHPwE71A0IXUrnBWn2fQZaTzcF0tqpBFIRuQVleKsLChw5C
lpc_rms=-19.40
sample=Oboe_sustain_PP_F5.opus
tune=-1
</region>

<region>
hivel=127
key=G#4
loop_end=251843
loop_mode=loop_continuous
loop_start=55886
loop_xfade=23744
lovel=1
lpc=HW0wQlRV+sJaCABDlA3GwbGxb8Jmj0pC6JOlQJrMr8G+wyNA5gm+wFvBuEEumG/BfTYVwDLTqkCSqG9A6OGhwFj3ib+UL5nAZYJbQXFV5MAJubTAteM7QVAxGcH2Al9A
lpc_rms=-22.24
sample=Oboe_sustain_PP_G#4.opus
</region>

<region>
hivel=127
key=G#5
loop_end=252146
loop_mode=loop_continuous
loop_start=55954
loop_xfade=23773
lovel=1
lpc=vzmHQkYh9MK7YbVCUHd1QYV3f8LF1hdCEhbRQRaV58FQYSTAJWjtQeFwfMFhe3BBIHY3wbhUP0HJCxtBZ8WOwaAroEGK8k1AGNrVv3CWE8EwU5FBMPQdQRf6qMEl9qdB
lpc_rms=-24.04
sample=Oboe_sustain_PP_G#5.opus
</region>

<region>
hivel=127
key=G4
loop_end=272560
loop_mode=loop_continuous
loop_start=60484
loop_xfade=25697
lovel=1
lpc=n+OVQd6RUcITVmBCxiOfwU/zcMEh+qpBOt8JwYzV+r8XkZdAB5mfwMFsLEDEBpm/B2GKQGEJgcCkSRq/xImOv3I3w0BzgCrA2UmiwFtpYEB1Z6ZAnojHwJzKHj59fN4/
lpc_rms=-29.61
sample=Oboe_sustain_PP_G4.opus
</region>

<region>
hivel=127
key=G5
loop_end=256746
loop_mode=loop_continuous
loop_start=56974
loop_xfade=24206
lovel=1
lpc=jeQGQo8XhcKYNFxCwa2UwGIQtcFUu5tB8mLEwDqWB0GWs5zAQ4URwOXA+kDoeKDAAl3PQPvRlkD1gyHB9danv2bvgEHC/OS/pxcfwVBNTUAchCxBlaEGwM/4I8GQFkRB
lpc_rms=-29.34
sample=Oboe_sustain_PP_G5.opus
tune=-2
</region>
</group>

<group>
amp_veltrack=0
ampeg_attack=2
ampeg_release=0.35
group_label=MF
lpc_hicc1=84
lpc_locc1=43
volume=-3

<region>
hivel=127
key=A#4
loop_end=270939
loop_mode=loop_continuous
loop_start=60124
loop_xfade=25545
lovel=1
lpc=r8wEQsVXv8JLztxCrqdVwhLUdcGmrCxC3aHKwRINuz6qUNRAlayCQOQOoMEeI5RBTGxLPzz5esFhRLVBQzitwRouMEGrTqpAMvC6wa5g3kEvpF7B8BrxvgzJw0B47mzA
lpc_rms=-20.90
sample=Oboe_sustain_MF_A#4.opus
tune=-2
</region>

<region>
hivel=127
key=A#5
loop_end=259344
loop_mode=loop_continuous
loop_start=57551
loop_xfade=24451
lovel=1
lpc=0Jd2QrsmzMLzj6tCNuawwZtCgcGrCrtBl74hwG7XmcDpJhlB8jOoPxBTr8AQZkhBmelywGBdoDzg2RJB+Ps0wMFyIsAXL4VBuJNjwf6nO0FO/+tAeKrcwTl+QUIYge7B
lpc_rms=-20.41
sample=Oboe_sustain_MF_A#5.opus
tune=+1
</region>

<region>
hivel=127
key=A4
loop_end=257644
loop_mode=loop_continuous
loop_start=57174
loop_xfade=24291
lovel=1
lpc=OFbOQTOMn8JjFdFCnweLwvJaLEFfB9NBZITlwWJLg0GQV9PASMegQFQc2MCKTFk/vcjEQFM/qsBHRS5A+oAOwHiTfED6FxDAQdKOwHqvy0BBYcc9Sa70wCwFB0ERnUHA
lpc_rms=-21.25
sample=Oboe_sustain_MF_A4.opus
</region>

<region>
hivel=127
key=a5
loop_end=283719
loop_mode=loop_continuous
loop_start=62960
loop_xfade=26750
lovel=1
lpc=NC4eQq05dsJZjz9Cpvj/PzIps8HgpddBTE80wYS3yEAZ/qxA8A8OQJ1Qsr1Kx51AD0t8wDWNbUFZRM8/EwuSwaUo90HEDFDBzAyKQNIIyUCV+QRAZjVXwO0OHkH0AihA
lpc_rms=-20.73
offset=10645
sample=Oboe_sustain_MF_A5.opus
tune=+1
</region>

<region>
hivel=127
key=B4
loop_end=264955
loop_mode=loop_continuous
loop_start=58796
loop_xfade=24980
lovel=1
lpc=r5/rQRUhrsIdRtdCiLd2wvr4/MAK/FNCgYVcwrre4kEbB0RAu3+twWvdvEG6az/BjldiPvnJwz8RIj4/aDMLwOmGjUCr16C/QSsBwfV8wUA4QhxBGEeLwYNwPUG6dIDA
lpc_rms=-19.95
sample=Oboe_sustain_MF_B4.opus
tune=-3
</region>

<region>
hivel=127
key=B5
loop_end=260015
loop_mode=loop_continuous
loop_start=57700
loop_xfade=24515
lovel=1
lpc=cU9xQvxaw8L1yJlCZVUZwPvjL8Ixxi5CbQkbwBg7kcHrdptBJPyVwMj+t0Dr8Ei+YRlau7fH1EC2QYY+PQsoPrbKcEBnA7g/So/0QKudssBQa8TAPR4MQn40BcIYiIpA
lpc_rms=-20.86
sample=Oboe_sustain_MF_B5.opus
tune=+1
</region>

<region>
hivel=127
key=C#4
loop_end=272253
loop_mode=loop_continuous
loop_start=60415
loop_xfade=25669
lovel=1
lpc=AvpLQmITG8OHsjlDLN3PwpdBnEHNJThBbwpnwQoTbkH1cAfBE8KYQNl78MAe0zLBpVDYQU0UqcArrXbBVwg5QXZpFcDwSKtAQI4LwRo4CcCXwOJA1ZY2wPR+kUALQ1vA
lpc_rms=-20.53
sample=Oboe_sustain_MF_C#4.opus
</region>

<region>
hivel=127
key=C#5
loop_end=270507
loop_mode=loop_continuous
loop_start=60028
loop_xfade=25504
lovel=1
lpc=QMi+QW/UgsJ7u5dCjYkjwvBQOsBNOJtBcS8AwaST6MBByo5BQpx2wZzYi0CjspQ/l/vCv2Ij9z9ZEMC/C9s2v4osQL7Kku5AGN8AwV/uvD5pcjlAfOavP+5XqcAEnjhA
lpc_rms=-21.33
sample=Oboe_sustain_MF_C#5.opus
tune=-1
</region>

<region>
hivel=127
key=C#6
loop_end=272041
loop_mode=loop_continuous
loop_start=60368
loop_xfade=25649
lovel=1
lpc=zM6SQo/0uMKm92hC2qyswVM1kUGCxpLAHV0dQZ9SREHGqznBeoCqQRaSpz/cR3vAn+yZQUOQZMB0at5Ax4vwQFXtm0CdOYo/AUkmQXrAKUC7i1RBIZQiwsxkj0GdkHVB
lpc_rms=-20.34
sample=Oboe_sustain_MF_C#6.opus
tune=-1
</region>

<region>
hivel=127
key=C4
loop_end=270272
loop_mode=loop_continuous
loop_start=59976
loop_xfade=25482
lovel=1
lpc=l+KSQlQtfcOVu69DJXZYw9DzhUA/cZRCNr66wXPGF8JxPE9CrQhnwURlE8KfYO5BibnDQchq+cHwKXvBkozuQQ83k0A1l4PB3AbqwJwMkEHAZw7BGQgRQDfB2r5SbQA/
lpc_rms=-17.87
sample=Oboe_sustain_MF_C4.opus
tune=-1
</region>

<region>
hivel=127
key=c5
loop_end=261147
loop_mode=loop_continuous
loop_start=57951
loop_xfade=24621
lovel=1
lpc=Bn+wQUe1f8KCKaBCaro8wq3FM8BrC/NBm42uwaJjCkCC9stAbMA6wFQlfr9sTVw9gCyJQCGULMD2Y1jAN3RkQH4Gc0CQnlzAznzLwKi1KEFbF7G+64xOwe41YkFRlajA
lpc_rms=-22.84
sample=Oboe_sustain_MF_C5.opus
tune=-1
</region>

<region>
hivel=127
key=C6
loop_end=251106
loop_mode=loop_continuous
loop_start=55723
loop_xfade=23675
lovel=1
lpc=V5bKQfdYAcKTObFB5apgQCOK38AyhdJAWZnzQDelRsDg8eM/mmsLQZv9KsDU2Y9A9qgqQAYN8T/vdatAeSUFwONctECGG6hAZItUwIh3lkAi8/5A1wb2v/mFCsGZbwRB
lpc_rms=-25.83
sample=Oboe_sustain_MF_C6.opus
tune=-1
</region>

<region>
hivel=127
key=D#4
loop_end=270245
loop_mode=loop_continuous
loop_start=59970
loop_xfade=25479
lovel=1
lpc=kZ9fQu51L8MokVhD6qLYwoyw1MHzL5JCZYwTwrL6pcBeaIJBvORhwZL0jEEXT8fBUDG/QaK8AcE3FvzAkhr/QIAxD0ACbkDAPJJywPwVCEHLbuzAPNuDQHRdQsAdJek/
lpc_rms=-19.57
sample=Oboe_sustain_MF_D#4.opus
</region>

<region>
hivel=127
key=D#5
loop_end=266962
loop_mode=loop_continuous
loop_start=59241
loop_xfade=25170
lovel=1
lpc=M3pbQl3+HMMB+EZDK0sHw5KoDULnvKBB8rRPwTMqVsGxBNNBNubFwXUvs0FbSKPBZBqLQdYCBcFZXApAYpbJvChuJcFe2LNB+7uKwSR4S0GO5pTBo5GUQSraOMGVscRA
lpc_rms=-15.07
sample=Oboe_sustain_MF_D#5.opus
tune=+1
</region>

<region>
hivel=127
key=D#6
loop_end=249640
loop_mode=loop_continuous
loop_start=55398
loop_xfade=23536
lovel=1
lpc=h0v6QifOJcMIxqhC5gUOQusHUcKOlRxCi6atQIYtNUDvX+FB0GMLQCZxTEEFQ5xBuDvqQPFCOkHAr5ZBvJAjQKxk10GhlA/Bqo86Qr6U1MJM9KlCZyZFQitMqMLOrmdC
lpc_rms=-18.16
sample=Oboe_sustain_MF_D#6.opus
tune=+1
</region>

<region>
hivel=127
key=D4
loop_end=273126
loop_mode=loop_continuous
loop_start=60609
loop_xfade=25751
lovel=1
lpc=czT9Qb5bvMLN/thCIn9jwhMd3UA4VDhBSS3gwMkRFsEdcZhB4eD8wOhXOsGXFX1B1fMnwAAUOMF7U2xBG6dpwIrbXsFLJ6tBHCJbwSkfVj4M5elAhEliwJ6J3L9C+Zw/
lpc_rms=-22.61
sample=Oboe_sustain_MF_D4.opus
tune=-1
</region>

<region>
hivel=127
key=D5
loop_end=265874
loop_mode=loop_continuous
loop_start=59000
loop_xfade=25067
lovel=1
lpc=7euZQfFjccLdcapC2AuMwjdnC0IuoO7ACBt0v/mklMCUnW9B+dmgwRWlhUFIfTrBD9wJQVlvPcBV8UbArh/TQEEE/sAyDbJAua29P1wq28AKwZ9ASi7RPxUQkMAPxRNA
lpc_rms=-21.99
sample=Oboe_sustain_MF_D5.opus
tune=+2
</region>

<region>
hivel=127
key=D6
loop_end=271916
loop_mode=loop_continuous
loop_start=60341
loop_xfade=25637
lovel=1
lpc=iNdHQtJ2gsKSFgtCo0ctQJM+zT//PWxAusA0v/b+S0Cc5YFAuNdVwIoi+UDTzhLA0gX1PwHox0ADfIfAS6v5QJ8hrMC+OxhBPiS6wIlpa0EDKz/CTXAOQstNi0D59HjB
lpc_rms=-23.01
sample=Oboe_sustain_MF_D6.opus
tune=-3
</region>

<region>
hivel=127
key=E4
loop_end=250798
loop_mode=loop_continuous
loop_start=55654
loop_xfade=23646
lovel=1
lpc=gpcfQl9P+8LVhR1DFLu0wjlWrkC77OhBULOdwYKLKUH9N13B19MEQbwV9UBTh6rB/dukQZoqwMALaUPAKR6uvwyb5UAYCBzAn3cTwbsOUUE/7+7AqNWAQMRrbcAf8do/
lpc_rms=-23.82
sample=Oboe_sustain_MF_E4.opus
tune=-1
</region>

<region>
hivel=127
key=E5
loop_end=261012
loop_mode=loop_continuous
loop_start=57921
loop_xfade=24609
lovel=1
lpc=IFoDQ2fas8OC+ctD4ntWwyKkwEHNlyRC0zo7wi1FhEIESDvC730OwfsEskENuTfBzJbrQe2IVcH9nWbB7MBmv6WzxUFPPTrBHjhuwCFDKr+1P4TB3V/LQgfUC8MSL4ZC
lpc_rms=-10.10
sample=Oboe_sustain_MF_E5.opus
tune=-2
</region>

<region>
hikey=A6
hivel=127
lokey=E6
loop_end=261841
loop_mode=loop_continuous
loop_start=58105
loop_xfade=24687
lovel=1
lpc=hhiYQuIP28JeV4hCfkqcQS1r68FHEaZBBRzBQD6XAUFQQBZBiUjfQP8IJEEGX8tAovUZQdKODUHD5oNAoACKQY7vkMB5NOJB+3iRwt1mokInXE0/jqdPwsXKN0IVWuHA
lpc_rms=-20.03
pitch_keycenter=E6
sample=Oboe_sustain_MF_E6.opus
tune=+3
</region>

<region>
hivel=127
key=F#4
loop_end=270982
loop_mode=loop_continuous
loop_start=60133
loop_xfade=25549
lovel=1
lpc=xlIAQuL3wsK7nvZCPNKcwrjJg0GKVoFBK/COwV3jMUHWxLHA5n3JP9KthkBtEn/Bdf69QTQAcsFIsZ08gbe/QHhfm8BotqVAUsLXwEi/l0A0qjBAHAgQwVOD5EAC4wnA
lpc_rms=-21.12
sample=Oboe_sustain_MF_F#4.opus
</region>

<region>
hivel=127
key=F#5
loop_end=254875
loop_mode=loop_continuous
loop_start=56559
loop_xfade=24030
lovel=1
lpc=f/wQQupVwcKeHf1C27a3wkfK9kFIPJtAn7ibwAZSdUC/FuTAzCynQDh8jkClvn/AmYEev2qn2j8mi5dAz82cwFl1Rb8ZM7RA1scPwNKcKkB4ZtTA9rMsQfmwBcFbtrZA
lpc_rms=-17.19
sample=Oboe_sustain_MF_F#5.opus
</region>

<region>
hivel=127
key=F4
loop_end=273337
loop_mode=loop_continuous
loop_start=60656
loop_xfade=25771
lovel=1
lpc=JS8LQlJQ0sK9pARDdUWowsTAGkGkpidC9Ac+woURtUHF1I9AEd14wY9JUUGuSHrBT7SkQVBiS8Gs3lM8GfC4QJnjmMDsoX9A3SRqvlRS1cBGXNhARdktv29n5r+2XYQ/
lpc_rms=-21.71
sample=Oboe_sustain_MF_F4.opus
tune=-1
</region>

<region>
hivel=127
key=F5
loop_end=253941
loop_mode=loop_continuous
loop_start=56352
loop_xfade=23942
lovel=1
lpc=2iGMQqZHDsPvtuZCUwK4wT9T7sHxN5pBT2DiQNDQycDUzktBAQgxweVxTUEOp5bBYqoqQbuo4UDuJlbBgrdLQYut4D7GhwBBI/YrwakDpD+xiMhACUsgwBvTLMG1c45B
lpc_rms=-21.59
sample=Oboe_sustain_MF_F5.opus
tune=+1
</region>

<region>
hivel=127
key=G#4
loop_end=262357
loop_mode=loop_continuous
loop_start=58219
loop_xfade=24736
lovel=1
lpc=SEQGQvutzsJWJgdDs9+qwgVOG0EYP+xBcLqKweoUzsBvIPVAFtabQG3dKMG+EOBAbsywQNdxhMEeg4ZBwSUYwRKwzkAAnNPAFwifPxI3j0BnCK6/ruo0wNuZCkDy7BG/
lpc_rms=-17.87
sample=Oboe_sustain_MF_G#4.opus
tune=-4
</region>

<region>
hivel=127
key=G#5
loop_end=269098
loop_mode=loop_continuous
loop_start=59715
loop_xfade=25371
lovel=1
lpc=ZfeHQm1HAMM0OAJDXd9jwkWW778ObvlB0DxywQqm/kA9fxJByYF8wAtVPECs6+tAhqVBwGPxhUG5JX/BtfKTQUzuBEHmT73B93gCQqU4W8E5ZNK+AB8EQppoFsLpxOpB
lpc_rms=-15.87
sample=Oboe_sustain_MF_G#5.opus
tune=+1
</region>

<region>
hivel=127
key=G4
loop_end=269782
loop_mode=loop_continuous
loop_start=59867
loop_xfade=25436
lovel=1
lpc=7mW3QeMGksLzS8ZCcD2HwgbDG0GSPstBvF+oweWhC0B2XfFACC4HwckUtkCCMq2+d+LMwEy6DUHCIBbApJHPwCqUCUERZg/AwN7dwKZuCUG4RLO//EKOwJ5ZXkAHeiu/
lpc_rms=-23.60
sample=Oboe_sustain_MF_G4.opus
tune=-1
</region>

<region>
hivel=127
key=G5
loop_end=272081
loop_mode=loop_continuous
loop_start=60377
loop_xfade=25652
lovel=1
lpc=VfXzQf6Cf8Jswn1CjrzGwRq1NMAwpOVAPkAYwIr2BUERGvLAiYEDQegnqcAs9Q/AAk50QQMnWcGCgARBeH/KwPpSU0GLBtXAikp1P6hOPMDH5HRAOx5SQXMYpcFjPWFB
lpc_rms=-20.17
sample=Oboe_sustain_MF_G5.opus
tune=+1
</region>
</group>

<group>
amp_veltrack=0
ampeg_attack=2
ampeg_release=0.35
group_label=FF
lpc_hiCC1=43
lpc_hicc1=127
lpc_locc1=85
volume=-3

<region>
hivel=127
key=A#4
loop_end=271286
loop_mode=loop_continuous
loop_start=60201
loop_xfade=25577
lovel=1
lpc=fhZeQmXuGsMO7zRDue/HwoB+kcBdsUZCjzzHwVzTn8CcYkpB9J3XwBH6Yb9HDZnAIE57Qa20XsErZgFBDmnwvzCt371pC7VAZQDgwSB5F0LLvJzBuMWgwMC9mkFU2znB
lpc_rms=-14.39
sample=Oboe_sustain_FF_A#4.opus
tune=-1
</region>

<region>
hivel=127
key=A#5
loop_end=273520
loop_mode=loop_continuous
loop_start=60697
loop_xfade=25788
lovel=1
lpc=k0WdQidzAsP6Bs5CZMtHwb6ZTcKuDoFC3r0IwmhTiEEdb84/NUDKP3Ef/MCc18BBqs2UwQL6tsCHRx1Cz1b8wfDktUD4KQtC2gc1wksFK0Ix5JXBgsZnwRMJQ0IiqAfC
lpc_rms=-15.54
sample=Oboe_sustain_FF_A#5.opus
tune=-2
</region>

<region>
hivel=127
key=A4
loop_end=269139
loop_mode=loop_continuous
loop_start=59725
loop_xfade=25375
lovel=1
lpc=dx7pQcl6r8JmfNJCsm9hwoaOkcAgjhRCRjAOwou7i0Fjy/O/QEmXwE5VVUAhYIDATff6QL/Lm8D3iky/UoBbQBN8mcAAA9FAXG/NwCaArr6uoE5BuY2OwepnHUGVudG/
lpc_rms=-20.07
sample=Oboe_sustain_FF_A4.opus
tune=+1
</region>

<region>
hivel=127
key=A5
loop_end=274002
loop_mode=loop_continuous
loop_start=60804
loop_xfade=25833
lovel=1
lpc=mhMeQt/cgcIsuH1CmG+TwXC1YcEIKwtCMNWzwV1omUG0VwjBl+LgQCazE0G1EafAEesOQD1aPUEDCyPAi6XOwHsqwEEp3lrBPyb1QC56lD+TMT1BkfUKwbcA50BHDtRA
lpc_rms=-17.23
sample=Oboe_sustain_FF_A5.opus
tune=-2
</region>

<region>
hivel=127
key=B4
loop_end=265412
loop_mode=loop_continuous
loop_start=58897
loop_xfade=25024
lovel=1
lpc=mbyjQWP/d8JcIqNCtS5jwlpyKEFAjspBfNn9wdHVi0FY3zzA8nhewCH8v0BQo8XAkrz+P2SRXEBrYW/AL6tuP06/KEDNQInAdNDGv1rAEUGB3QbBVfhHQGP+Ub20ba++
lpc_rms=-21.18
sample=Oboe_sustain_FF_B4.opus
tune=-2
</region>

<region>
hivel=127
key=B5
loop_end=256291
loop_mode=loop_continuous
loop_start=56873
loop_xfade=24164
lovel=1
lpc=nstSQnDQq8LH4aBCeQfRwb1AtMGqS1RC1XgUwjFjfUEUd8JAZw+LwIO8fUD3kbNAQsZ7P7WGAEAMlok+DCC2QA7cVUDbA8HAnHaAQZDStr/KqJfBwzcvQiifAsLpZpJA
lpc_rms=-19.30
sample=Oboe_sustain_FF_B5.opus
tune=-2
</region>

<region>
hivel=127
key=C#4
loop_end=266477
loop_mode=loop_continuous
loop_start=59134
loop_xfade=25124
lovel=1
lpc=nBXrQQ3AssLJGepCM36qwpQ/IEJf8JTB8LGNQTO2YsG9AwRBFKC/wFcnSUBktTPAnFCTQN144r80tr8/0dfowHm3R0FHgbnA96bKwMBZ9kAxlfS89CiRwNm8ckC9pVS/
lpc_rms=-18.35
sample=Oboe_sustain_FF_C#4.opus
tune=-1
</region>

<region>
hivel=127
key=C#5
loop_end=265474
loop_mode=loop_continuous
loop_start=58911
loop_xfade=25029
lovel=1
lpc=ACDDQU+MjMKaD65CUSxZwtdGG0GgPzlBvMwrwRdmKkEiEjDBpBTbQBU2RMAw7Y5A3u/owAn/SUBBzftAPpFdwWKDJEEj4da/YiVhwOSoUUDZKwTA0NLvP5iTtr/kw4U+
lpc_rms=-20.75
sample=Oboe_sustain_FF_C#5.opus
</region>

<region>
hivel=127
key=C#6
loop_end=270942
loop_mode=loop_continuous
loop_start=60125
loop_xfade=25545
lovel=1
lpc=e3NWQkCIfML1yDRCPkCawUgQZUFnA59A5fCGP59MOkEnqV/AcfRXQUDjYL5y9spAuDWcQLLC20Af350/ClwUQTx/A0AZntZAO4QnQERLDEElagVB1+fmwbb6RkHF9ilB
lpc_rms=-21.20
sample=Oboe_sustain_FF_C#6.opus
</region>

<region>
hivel=127
key=C4
loop_end=269765
loop_mode=loop_continuous
loop_start=59863
loop_xfade=25434
lovel=1
lpc=OfA4Qg8CI8PTAIBD8rlkwyB980KyphDCDBpzQZ8k+MH4djVCCSwXwlqSMkH9JkRBBNiRwfWErEG9nvnBuFDQQSj7hr/We0rBzqcTQIOIR0EZsHnBu9gQQXckJMCogxc/
lpc_rms=-15.21
sample=Oboe_sustain_FF_C4.opus
</region>

<region>
hivel=127
key=C5
loop_end=258330
loop_mode=loop_continuous
loop_start=57326
loop_xfade=24356
lovel=1
lpc=l8aqQfMqaMIswpJC60lYwjuEr0EGbctAZSeewZZHtEGzSmrBdbepQHhJCz9uMILAGhcuQW63SME6RAxBK6JhwMOCoD/GqEhAKUrGwB8KnUCqwo8/5AaQwCL/ZUAg5US/
lpc_rms=-19.56
sample=Oboe_sustain_FF_C5.opus
tune=-3
</region>

<region>
hivel=127
key=C6
loop_end=259599
loop_mode=loop_continuous
loop_start=57608
loop_xfade=24475
lovel=1
lpc=ldo4QifFdMLnvVRCSOWrwXtmHEE5N75AOIJ1QPir173+4x1BuS8+v9PFtUACxmlAGE9+QIWVrkAo9Dk+p5kRQY3G7r9hvw1BlI7ZPzAIe0Abb3Q/c1OiQfs3EsJjIJ1B
lpc_rms=-19.66
sample=Oboe_sustain_FF_C6.opus
tune=+2
</region>

<region>
hivel=127
key=D#4
loop_end=270457
loop_mode=loop_continuous
loop_start=60017
loop_xfade=25499
lovel=1
lpc=E7QgQrF+/MJWHSdDNivpwqy5EUIPWItBQ7oMwsbkw0F8eo1AB0TVwQpi+UFDSODBSBK9QYO6ncEVFnZBL+UtwWlm3EDvEao/gNTZwPZy0z8GJAdB9kkawfef7T9jz8w/
lpc_rms=-17.60
sample=Oboe_sustain_FF_D#4.opus
tune=-1
</region>

<region>
hivel=127
key=D#5
loop_end=265418
loop_mode=loop_continuous
loop_start=58899
loop_xfade=25024
lovel=1
lpc=0/xfQkX2HcMuZkRDv9P9wrfE2UEaq8RB/ynAwZRoQEH4zC/BPBg2QaWXnEDzsLfBNU0CQr6nCcKYmwVCyr6TwXKdJsGpWwNCN3Phwd3P1z+SzJJBTM9IwXAP778BEL5A
lpc_rms=-14.35
sample=Oboe_sustain_FF_D#5.opus
</region>

<region>
hivel=127
key=D#6
loop_end=256939
loop_mode=loop_continuous
loop_start=57017
loop_xfade=24225
lovel=1
lpc=YmETQ4ItUsPDbShDBah6wjqTVkEQAqxBdqYNQQSpnUEFwpBBFlcvQXxLt0GSHABB2RvOQaPK60CJoJ1BGffLQYCtFcA29+5B173SQRnU9sIakRdDClckwjC/j8BCBARC
lpc_rms=-8.48
sample=Oboe_sustain_FF_D#6.opus
</region>

<region>
hivel=127
key=D4
loop_end=272281
loop_mode=loop_continuous
loop_start=60422
loop_xfade=25671
lovel=1
lpc=+zfKQSg2n8IRkNRC1gOcwkzcEUKjlErBwIjSPxgLwD8mOIJANxbcwIfonL+QNNNA2QXCP21EEMGPkqhAotiBvpvfQ74BHqRAR4lrwZ7VikF7snvBmXeGQbS9VMF7nZJA
lpc_rms=-16.56
sample=Oboe_sustain_FF_D4.opus
</region>

<region>
hivel=127
key=D5
loop_end=269533
loop_mode=loop_continuous
loop_start=59812
loop_xfade=25412
lovel=1
lpc=S7qgQV5lgsKHssFCDXOrwtehQEL8f2vBH48NQLAf1sCxHFNBWt/8wKN4scDBWxVBLQGjPR8Y2MB8NY9A2XZ6P7t/pcAqLdlAPeWbwIC1dUDT9eTAbtA3QVX9GsFm8mVA
lpc_rms=-20.30
sample=Oboe_sustain_FF_D5.opus
</region>

<region>
hivel=127
key=D6
loop_end=269053
loop_mode=loop_continuous
loop_start=59705
loop_xfade=25367
lovel=1
lpc=FVaFQtGXvsKpgp5C1tkCwvQkhUFAf8VAd/rbv35PgkGCdjjBQea8QW0FFMF0UzJBhiOpQGl1Ez5gxXtBM6UpwdizlUGUw/K9FCnZvv2Zw0GoLIPC4uB6QjX7pcGVmlZA
lpc_rms=-17.21
sample=Oboe_sustain_FF_D6.opus
tune=+1
</region>

<region>
hivel=127
key=E4
loop_end=272155
loop_mode=loop_continuous
loop_start=60394
loop_xfade=25659
lovel=1
lpc=UjRQQoNOLMNUEHRDY180w5qpYEIm14pBRsDFwWx100Hr2ivCPjlSQrtOLMIrW2xBtMuOQaaLBMKe/dxBqJhvwcziZEG3R6XBYxBoQQ5rp0BuwtLBZ98UQkgY28GEqw1B
lpc_rms=-12.41
sample=Oboe_sustain_FF_E4.opus
tune=-1
</region>

<region>
hivel=127
key=E5
loop_end=255656
loop_mode=loop_continuous
loop_start=56733
loop_xfade=24104
lovel=1
lpc=D4rHQvQKi8M+0ahD4/hYw1ZsTUJyBGJCNtCgwgTNkkLS90DCxzbUPvph+kFJLQjCIGUBQv03lMBY3bLBtdfLQdxrocGZbatAJ3DTQdKwHcK0wkpBZR5MQmm8ocI+TiRC
lpc_rms=-8.12
sample=Oboe_sustain_FF_E5.opus
tune=-1
</region>

<region>
hikey=A6
hivel=127
lokey=E6
loop_end=273749
loop_mode=loop_continuous
loop_start=60747
loop_xfade=25810
lovel=1
lpc=0T0RQ5S5R8OE3iBDGbZNwp/oMkED+clBQkpWQMirCEI1ATtB87qLQQfQ0kG5GkZBZg69QT5pf0FExp5B0nasQW07ZkHP6w1CwTD7wsoVKUNYQYTCp+FIQb7L8kEtp5o/
lpc_rms=-10.18
pitch_keycenter=E6
sample=Oboe_sustain_FF_E6.opus
</region>

<region>
hivel=127
key=F#4
loop_end=267654
loop_mode=loop_continuous
loop_start=59395
loop_xfade=25235
lovel=1
lpc=yAO/QdgsjMKwC6xCx6ZdwoyonEFyAAnAMmd8wFlj3kA/f5HAs3+jQKWuNMHxUQFBvtoMQHaUVMCDnUE+L/hTwFgjE0F3J9nAJtkjwLzeOEDqvbBANu4FwfTLn0CvMM6/
lpc_rms=-21.34
sample=Oboe_sustain_FF_F#4.opus
</region>

<region>
hivel=127
key=F#5
loop_end=270414
loop_mode=loop_continuous
loop_start=60007
loop_xfade=25495
lovel=1
lpc=EMqqQZ0SXcJuFYxCN8xSwq/c3UGgbWzB9e17QWRNTMEgEYxAHCyoP+Tb6j/DO5DAN1SrQAXHQsBPku0/+ZvQP+Re4MBazk9BKplNwdOzKEGvQ+nAh234QNrKAsH0BLZA
lpc_rms=-18.95
sample=Oboe_sustain_FF_F#5.opus
</region>

<region>
hivel=127
key=F4
loop_end=266684
loop_mode=loop_continuous
loop_start=59180
loop_xfade=25143
lovel=1
lpc=3lEiQo0e8sL8XRxDLkvmwkyUTkIEd6C+EZYGwmXwTEK3rTjCQFgDQux8eMHCZxzBQd23Qa/AhcFLJfFAjCGRwIt/HkHRcdvAfwowwLEfAT9y525B+xLHwYXihkG3pmLA
lpc_rms=-15.39
sample=Oboe_sustain_FF_F4.opus
</region>

<region>
hivel=127
key=F5
loop_end=259485
loop_mode=loop_continuous
loop_start=57582
loop_xfade=24465
lovel=1
lpc=D54HQ55dmsOig5xD4Qocw/xt9sA6bKpC0L9zwv0+PEEgRbFBJ1CTQTHFI8KTbnPBlZx3QuX6OsJ/zI9B8XdgQUjTlMHS+M9BIL1CwUBDxMDmhYhBaNi6wZqWEkEah4FB
lpc_rms=-10.33
sample=Oboe_sustain_FF_F5.opus
tune=+2
</region>

<region>
hivel=127
key=G#4
loop_end=266179
loop_mode=loop_continuous
loop_start=59068
loop_xfade=25096
lovel=1
lpc=sh3TQf8OosJTzdZCA4uUwgVJq0Hxvh5Bn+kIwR+ANr9QD0LAGglIQctnkcET/oFBpMeWwCUofb8TVuS/XwHcPo06jEBWC0HAEi2mwGJYDEEnuak/CDNAwRoFHUFh3ifA
lpc_rms=-18.52
sample=Oboe_sustain_FF_G#4.opus
tune=-1
</region>

<region>
hivel=127
key=G#5
loop_end=268690
loop_mode=loop_continuous
loop_start=59625
loop_xfade=25333
lovel=1
lpc=QsZXQu1Au8JHOaZCKN/JwdahNMFE8dNBj7+UwQulrUFAqYDA85BkQFRohMH6nAFCAkCRwd4IIUHcoyhAGzEPwEI/kUE+g5DB9J5QQV59GsFs8cZBIYAQwUbnqcBe0WZB
lpc_rms=-16.37
sample=Oboe_sustain_FF_G#5.opus
tune=-2
</region>

<region>
hivel=127
key=G4
loop_end=258464
loop_mode=loop_continuous
loop_start=57356
loop_xfade=24368
lovel=1
lpc=nPyYQQExa8KXOqNCjfeBws5M6UHtU7jAOflDQIn8g8AC2Mm93nQSQTEli8GZUYBB+pTlwPVFCUDftTTARSHkP7h1p0BSSyrBKxLrQM7Xwb9pNz4+L/r4v8mgG0Az1me/
lpc_rms=-17.02
sample=Oboe_sustain_FF_G4.opus
tune=-1
</region>

<region>
hivel=127
key=G5
loop_end=283719
loop_mode=loop_continuous
loop_start=62960
loop_xfade=26750
lovel=1
lpc=nrpVQS+748GsuftBwmaYwTTos0Abw6U/7ht9PsIqMkBtm/PAh9MLQaXcU8AYDKY+ZpiyP61ucL7DBxRAMFyhwJ2wwUDqkcq/wIPfvnnuJEAjeFjACMiNQDmoX8DAQlhA
lpc_rms=-22.95
sample=Oboe_sustain_FF_G5.opus
</region>
</group>